<svg xmlns="http://www.w3.org/2000/svg" viewBox="0 0 25 25" id="bosch"><path fill="#DE002A" d="M8.34 20.858a.997.997 0 0 1-.601-.201C4.66 18.701 3 15.807 3 12.464c0-4.49 2.946-7.001 4.702-8.099.062-.04-.012.012-.066.066a1 1 0 0 1 1.704.71v5.271a1 1 0 0 1-2 0V7.156C6.162 8.266 5 9.989 5 12.464c0 2.5 1.162 4.242 2.34 5.366v-3.177h2v5.205a1 1 0 0 1-1 1zM7.601 4.469s-.001.001 0 0c-.001.001 0 0 0 0zm.001-.001zM16.515 21a1 1 0 0 1-1-1v-5.347h2v3.323a8.29 8.29 0 0 0 1.809-2.29c.434-.917.676-2.047.676-3.222 0-2.733-1.332-4.425-2.485-5.442v3.38h-2V5a1.002 1.002 0 0 1 1.726-.688l.25.172C18.725 5.345 22 7.632 22 12.464c0 1.469-.309 2.896-.893 4.125-1.195 2.221-2.737 3.308-3.565 3.892-.156.11-.285.198-.373.274a.988.988 0 0 1-.654.245z"></path><path fill="#DE002A" d="M16.515 16.024H8.34a1 1 0 0 1-1-1v-4.621a1 1 0 0 1 1-1h8.175a1 1 0 0 1 1 1v4.621a1 1 0 0 1-1 1zm-7.175-2h6.175v-2.621H9.34v2.621z"></path><path fill="#583689" d="M12.537 25C5.624 25 0 19.376 0 12.463 0 5.591 5.624 0 12.537 0 19.409 0 25 5.591 25 12.463 25 19.376 19.409 25 12.537 25zm0-23C6.825 2 2 6.792 2 12.463 2 18.273 6.727 23 12.537 23 18.306 23 23 18.273 23 12.463 23 6.694 18.306 2 12.537 2z"></path></svg>